<svg width="280" height="280" viewBox="0 0 280 280" fill="none" xmlns="http://www.w3.org/2000/svg">
<path d="M91.1047 145.098C89.9567 145.098 89.014 144.827 88.2767 144.286C87.5393 143.735 87.1427 142.951 87.0867 141.934H90.0127C90.0407 142.279 90.1433 142.531 90.3207 142.69C90.498 142.849 90.7267 142.928 91.0067 142.928C91.2587 142.928 91.464 142.867 91.6227 142.746C91.7907 142.615 91.8747 142.438 91.8747 142.214C91.8747 141.925 91.7393 141.701 91.4687 141.542C91.198 141.383 90.7593 141.206 90.1527 141.01C89.5087 140.795 88.986 140.59 88.5847 140.394C88.1927 140.189 87.8473 139.895 87.5487 139.512C87.2593 139.12 87.1147 138.611 87.1147 137.986C87.1147 137.351 87.2733 136.81 87.5907 136.362C87.908 135.905 88.3467 135.559 88.9067 135.326C89.4667 135.093 90.1013 134.976 90.8107 134.976C91.9587 134.976 92.8733 135.247 93.5547 135.788C94.2453 136.32 94.614 137.071 94.6607 138.042H91.6787C91.6693 137.743 91.576 137.519 91.3987 137.37C91.2307 137.221 91.0113 137.146 90.7407 137.146C90.5353 137.146 90.3673 137.207 90.2367 137.328C90.106 137.449 90.0407 137.622 90.0407 137.846C90.0407 138.033 90.1107 138.196 90.2507 138.336C90.4 138.467 90.582 138.583 90.7967 138.686C91.0113 138.779 91.3287 138.901 91.7487 139.05C92.374 139.265 92.8873 139.479 93.2887 139.694C93.6993 139.899 94.0493 140.193 94.3387 140.576C94.6373 140.949 94.7867 141.425 94.7867 142.004C94.7867 142.592 94.6373 143.119 94.3387 143.586C94.0493 144.053 93.6247 144.421 93.0647 144.692C92.514 144.963 91.8607 145.098 91.1047 145.098ZM95.7263 140.044C95.7263 139.073 95.927 138.21 96.3283 137.454C96.739 136.689 97.3177 136.096 98.0643 135.676C98.811 135.247 99.6697 135.032 100.64 135.032C101.872 135.032 102.908 135.363 103.748 136.026C104.588 136.679 105.13 137.571 105.372 138.7H102.418C102.241 138.327 101.994 138.042 101.676 137.846C101.368 137.65 101.009 137.552 100.598 137.552C99.9637 137.552 99.455 137.781 99.0723 138.238C98.699 138.686 98.5123 139.288 98.5123 140.044C98.5123 140.809 98.699 141.421 99.0723 141.878C99.455 142.326 99.9637 142.55 100.598 142.55C101.009 142.55 101.368 142.452 101.676 142.256C101.994 142.06 102.241 141.775 102.418 141.402H105.372C105.13 142.531 104.588 143.427 103.748 144.09C102.908 144.743 101.872 145.07 100.64 145.07C99.6697 145.07 98.811 144.86 98.0643 144.44C97.3177 144.011 96.739 143.418 96.3283 142.662C95.927 141.897 95.7263 141.024 95.7263 140.044ZM112.916 143.39H109.416L108.884 145H106L109.598 135.13H112.762L116.346 145H113.448L112.916 143.39ZM112.23 141.29L111.166 138.098L110.116 141.29H112.23ZM126.382 145H123.638L119.984 139.484V145H117.24V135.13H119.984L123.638 140.716V135.13H126.382V145ZM137.387 146.652L136.295 145.014C135.987 145.07 135.674 145.098 135.357 145.098C134.433 145.098 133.583 144.883 132.809 144.454C132.034 144.015 131.418 143.413 130.961 142.648C130.513 141.873 130.289 141.001 130.289 140.03C130.289 139.059 130.513 138.191 130.961 137.426C131.418 136.651 132.034 136.049 132.809 135.62C133.583 135.191 134.433 134.976 135.357 134.976C136.29 134.976 137.139 135.191 137.905 135.62C138.679 136.049 139.291 136.651 139.739 137.426C140.187 138.191 140.411 139.059 140.411 140.03C140.411 140.842 140.247 141.593 139.921 142.284C139.594 142.965 139.146 143.535 138.577 143.992L140.663 146.652H137.387ZM133.089 140.03C133.089 140.805 133.289 141.421 133.691 141.878C134.092 142.326 134.647 142.55 135.357 142.55C136.057 142.55 136.607 142.321 137.009 141.864C137.419 141.407 137.625 140.795 137.625 140.03C137.625 139.246 137.419 138.63 137.009 138.182C136.607 137.725 136.057 137.496 135.357 137.496C134.647 137.496 134.092 137.725 133.691 138.182C133.289 138.63 133.089 139.246 133.089 140.03ZM146.656 145L144.696 141.36H144.402V145H141.658V135.13H145.984C146.777 135.13 147.449 135.27 148 135.55C148.551 135.821 148.966 136.199 149.246 136.684C149.526 137.16 149.666 137.697 149.666 138.294C149.666 138.966 149.479 139.559 149.106 140.072C148.742 140.576 148.205 140.935 147.496 141.15L149.722 145H146.656ZM144.402 139.484H145.76C146.133 139.484 146.413 139.395 146.6 139.218C146.787 139.041 146.88 138.784 146.88 138.448C146.88 138.131 146.782 137.883 146.586 137.706C146.399 137.519 146.124 137.426 145.76 137.426H144.402V139.484ZM153.258 140.044C153.258 139.073 153.458 138.21 153.86 137.454C154.27 136.689 154.849 136.096 155.596 135.676C156.342 135.247 157.201 135.032 158.172 135.032C159.404 135.032 160.44 135.363 161.28 136.026C162.12 136.679 162.661 137.571 162.904 138.7H159.95C159.772 138.327 159.525 138.042 159.208 137.846C158.9 137.65 158.54 137.552 158.13 137.552C157.495 137.552 156.986 137.781 156.604 138.238C156.23 138.686 156.044 139.288 156.044 140.044C156.044 140.809 156.23 141.421 156.604 141.878C156.986 142.326 157.495 142.55 158.13 142.55C158.54 142.55 158.9 142.452 159.208 142.256C159.525 142.06 159.772 141.775 159.95 141.402H162.904C162.661 142.531 162.12 143.427 161.28 144.09C160.44 144.743 159.404 145.07 158.172 145.07C157.201 145.07 156.342 144.86 155.596 144.44C154.849 144.011 154.27 143.418 153.86 142.662C153.458 141.897 153.258 141.024 153.258 140.044ZM168.935 145.098C168.011 145.098 167.162 144.883 166.387 144.454C165.612 144.015 164.996 143.413 164.539 142.648C164.091 141.873 163.867 141.001 163.867 140.03C163.867 139.059 164.091 138.191 164.539 137.426C164.996 136.651 165.612 136.049 166.387 135.62C167.162 135.191 168.011 134.976 168.935 134.976C169.868 134.976 170.718 135.191 171.483 135.62C172.258 136.049 172.869 136.651 173.317 137.426C173.765 138.191 173.989 139.059 173.989 140.03C173.989 141.001 173.765 141.873 173.317 142.648C172.869 143.413 172.258 144.015 171.483 144.454C170.708 144.883 169.859 145.098 168.935 145.098ZM168.935 142.55C169.635 142.55 170.186 142.321 170.587 141.864C170.998 141.407 171.203 140.795 171.203 140.03C171.203 139.246 170.998 138.63 170.587 138.182C170.186 137.725 169.635 137.496 168.935 137.496C168.226 137.496 167.67 137.725 167.269 138.182C166.868 138.63 166.667 139.246 166.667 140.03C166.667 140.805 166.868 141.421 167.269 141.878C167.67 142.326 168.226 142.55 168.935 142.55ZM179.128 135.13C180.164 135.13 181.07 135.34 181.844 135.76C182.628 136.171 183.23 136.749 183.65 137.496C184.07 138.243 184.28 139.097 184.28 140.058C184.28 141.01 184.066 141.859 183.636 142.606C183.216 143.353 182.614 143.941 181.83 144.37C181.056 144.79 180.155 145 179.128 145H175.222V135.13H179.128ZM178.918 142.578C179.721 142.578 180.351 142.359 180.808 141.92C181.266 141.481 181.494 140.861 181.494 140.058C181.494 139.246 181.266 138.621 180.808 138.182C180.351 137.734 179.721 137.51 178.918 137.51H177.966V142.578H178.918ZM188.261 137.328V138.938H191.411V141.024H188.261V142.802H191.831V145H185.517V135.13H191.831V137.328H188.261Z" fill="#35D3D3"/>
<rect x="3" y="3" width="274" height="274" rx="27" stroke="#35D3D3" stroke-width="6" stroke-linecap="square" stroke-dasharray="100 100"/>
</svg>
